<?xml version="1.0" encoding="UTF-8"?>
<!-- Generator: visioncortex VTracer 0.6.12 -->
<svg version="1.1" xmlns="http://www.w3.org/2000/svg" width="1254" height="1254">
<path d="M0,0 L1254,0 L1254,1254 L0,1254 Z " fill="#FDFCFC" transform="translate(0,0)"/>
<path d="M0,0 L55,0 L73,1 L78,2 L97,3 L113,6 L127,8 L153,13 L176,19 L188,22 L208,28 L230,36 L243,41 L258,48 L280,58 L291,64 L300,68 L300,70 L306,72 L323,82 L347,98 L364,110 L381,123 L398,137 L409,147 L417,154 L429,165 L445,181 L452,189 L463,201 L472,212 L486,229 L500,248 L512,265 L526,287 L541,313 L552,334 L555,341 L560,351 L564,362 L568,370 L572,380 L579,399 L584,413 L588,426 L596,455 L603,487 L607,512 L611,545 L613,568 L613,589 L611,586 L607,572 L606,571 L604,561 L599,551 L594,537 L582,510 L567,481 L554,461 L546,450 L537,438 L522,422 L508,411 L493,404 L485,402 L468,402 L447,408 L423,416 L406,421 L364,434 L362,434 L354,418 L351,410 L346,398 L342,386 L342,363 L337,353 L331,346 L328,331 L325,306 L325,264 L328,241 L335,215 L343,195 L351,179 L361,163 L373,147 L382,137 L377,132 L362,120 L358,117 L354,119 L344,130 L331,148 L319,169 L311,186 L303,208 L298,229 L295,245 L294,270 L294,309 L296,325 L296,332 L287,331 L265,327 L263,326 L254,325 L252,324 L238,322 L231,320 L208,316 L200,314 L198,301 L191,293 L186,290 L184,276 L180,268 L175,262 L162,252 L149,242 L136,231 L123,222 L104,212 L77,202 L52,196 L33,192 L16,190 L-33,190 L-63,194 L-91,201 L-116,210 L-143,223 L-165,237 L-178,247 L-191,258 L-204,270 L-219,284 L-230,294 L-246,305 L-263,313 L-267,315 L-250,315 L-236,311 L-220,303 L-209,296 L-190,284 L-183,280 L-176,277 L-173,276 L-174,279 L-185,288 L-208,311 L-216,318 L-233,331 L-254,344 L-269,354 L-282,365 L-291,376 L-299,392 L-301,402 L-295,392 L-282,379 L-267,369 L-250,361 L-241,359 L-246,364 L-260,376 L-272,390 L-283,407 L-298,434 L-311,456 L-321,471 L-331,485 L-343,502 L-353,518 L-359,530 L-362,543 L-362,558 L-357,572 L-356,559 L-351,547 L-346,541 L-345,543 L-345,562 L-342,575 L-335,589 L-326,598 L-312,605 L-306,606 L-298,606 L-312,599 L-322,590 L-328,583 L-334,571 L-336,564 L-336,538 L-333,525 L-330,518 L-335,523 L-340,529 L-341,527 L-335,512 L-325,495 L-314,479 L-301,461 L-288,443 L-275,425 L-263,409 L-253,397 L-252,399 L-258,417 L-264,430 L-272,446 L-280,460 L-291,476 L-303,495 L-306,500 L-309,507 L-314,520 L-315,528 L-313,525 L-311,525 L-313,531 L-317,543 L-317,556 L-312,546 L-305,538 L-303,538 L-305,544 L-308,552 L-308,568 L-299,558 L-285,550 L-257,540 L-242,532 L-232,524 L-222,514 L-215,503 L-212,497 L-210,498 L-214,513 L-219,525 L-227,536 L-233,543 L-246,552 L-260,558 L-276,565 L-284,571 L-292,580 L-296,588 L-286,583 L-280,582 L-260,582 L-248,586 L-237,592 L-227,601 L-218,611 L-205,631 L-198,640 L-194,645 L-180,656 L-163,665 L-144,671 L-134,673 L-139,658 L-141,649 L-141,611 L-136,578 L-134,565 L-131,536 L-131,499 L-135,467 L-141,440 L-147,414 L-148,410 L-145,413 L-132,434 L-122,452 L-117,465 L-113,475 L-110,491 L-109,498 L-109,531 L-112,548 L-116,563 L-115,562 L-106,539 L-102,523 L-101,511 L-101,476 L-106,455 L-109,445 L-114,433 L-128,404 L-134,390 L-138,377 L-141,364 L-141,334 L-137,319 L-129,303 L-123,294 L-113,284 L-113,287 L-119,301 L-123,316 L-124,325 L-124,338 L-117,326 L-111,319 L-109,319 L-110,326 L-113,334 L-113,365 L-109,381 L-106,368 L-104,368 L-103,379 L-96,403 L-89,417 L-85,429 L-82,437 L-79,445 L-76,458 L-75,469 L-75,506 L-77,518 L-75,518 L-74,514 L-67,500 L-57,486 L-48,476 L-37,466 L-37,469 L-45,483 L-51,495 L-57,517 L-58,533 L-51,522 L-38,509 L-30,504 L-32,508 L-42,526 L-51,553 L-53,558 L-74,565 L-95,571 L-99,573 L-102,579 L-85,574 L-48,562 L-35,558 L-13,551 L4,546 L25,539 L50,532 L66,527 L92,519 L77,519 L58,524 L56,524 L56,522 L69,513 L82,509 L89,508 L122,508 L144,510 L171,510 L191,507 L208,503 L225,497 L241,489 L255,480 L265,471 L273,462 L278,451 L279,448 L279,436 L274,427 L266,419 L252,409 L248,404 L267,404 L271,403 L256,400 L242,393 L234,385 L229,376 L229,366 L235,357 L244,349 L256,343 L267,340 L292,340 L306,343 L318,348 L327,354 L332,361 L333,364 L333,380 L328,390 L324,393 L321,386 L319,385 L319,409 L312,423 L297,443 L286,464 L283,472 L283,479 L287,484 L293,484 L301,478 L303,478 L305,474 L312,464 L316,457 L318,452 L319,455 L343,447 L407,427 L447,414 L460,410 L471,407 L483,407 L498,412 L509,419 L519,428 L532,441 L545,458 L558,478 L571,502 L584,529 L589,542 L594,554 L603,581 L608,602 L610,619 L610,645 L607,662 L599,681 L592,692 L583,703 L573,711 L567,715 L558,718 L548,720 L534,720 L524,716 L519,712 L513,702 L512,698 L512,643 L510,621 L504,590 L497,566 L489,545 L481,528 L469,507 L459,492 L446,476 L437,468 L430,465 L419,465 L403,469 L379,476 L352,483 L329,490 L314,494 L290,501 L288,512 L283,525 L277,534 L269,542 L257,548 L248,551 L242,551 L243,549 L256,544 L265,537 L272,530 L280,514 L281,509 L281,502 L278,500 L267,500 L244,507 L215,515 L198,521 L186,526 L169,536 L160,542 L142,552 L122,560 L107,565 L91,569 L75,571 L60,571 L62,569 L98,557 L136,544 L150,539 L163,533 L152,536 L128,544 L114,548 L98,553 L83,558 L55,567 L15,580 L-9,588 L-26,593 L-37,597 L-54,602 L-115,622 L-117,629 L-76,615 L-67,613 L-69,617 L-83,639 L-92,658 L-97,674 L-99,689 L-99,709 L-97,721 L-95,726 L-92,738 L-84,754 L-77,765 L-67,776 L-54,785 L-51,786 L-59,770 L-64,751 L-64,732 L-62,718 L-60,716 L-57,736 L-50,757 L-44,768 L-36,779 L-25,792 L-3,814 L7,827 L14,840 L13,842 L3,833 L-13,823 L-29,815 L-52,805 L-67,797 L-73,793 L-65,811 L-57,822 L-51,830 L-57,828 L-64,824 L-83,815 L-102,803 L-116,793 L-126,784 L-134,777 L-146,764 L-157,748 L-164,736 L-163,746 L-159,760 L-151,776 L-147,781 L-147,783 L-152,781 L-164,772 L-176,760 L-186,745 L-195,726 L-200,712 L-200,737 L-204,733 L-213,716 L-224,684 L-231,670 L-233,666 L-224,662 L-219,662 L-222,658 L-231,660 L-286,679 L-294,682 L-306,686 L-314,689 L-333,696 L-345,700 L-349,698 L-367,671 L-371,665 L-371,663 L-341,653 L-312,644 L-269,630 L-250,624 L-250,622 L-251,620 L-259,621 L-315,639 L-365,655 L-387,662 L-396,665 L-409,670 L-423,674 L-446,682 L-456,685 L-466,688 L-473,690 L-473,679 L-469,652 L-467,640 L-463,624 L-454,595 L-450,585 L-441,564 L-429,539 L-416,516 L-404,496 L-392,477 L-376,452 L-356,422 L-340,397 L-327,375 L-315,352 L-307,336 L-301,319 L-293,295 L-290,285 L-288,273 L-285,259 L-282,240 L-282,186 L-287,157 L-293,136 L-297,127 L-300,119 L-303,113 L-307,114 L-326,128 L-330,131 L-327,140 L-320,162 L-316,182 L-314,196 L-314,242 L-318,266 L-322,282 L-330,308 L-339,330 L-350,353 L-361,372 L-372,390 L-389,416 L-404,439 L-415,456 L-428,477 L-444,504 L-456,526 L-465,543 L-478,572 L-483,587 L-486,594 L-492,612 L-498,638 L-502,659 L-504,682 L-506,701 L-516,705 L-522,710 L-525,715 L-525,729 L-522,740 L-515,753 L-509,758 L-502,761 L-498,785 L-494,801 L-490,815 L-485,831 L-482,841 L-477,853 L-466,878 L-453,904 L-438,929 L-422,953 L-411,967 L-403,977 L-394,988 L-382,1001 L-369,1016 L-361,1023 L-347,1035 L-333,1046 L-315,1060 L-282,1082 L-269,1090 L-250,1101 L-234,1109 L-238,1104 L-248,1095 L-255,1088 L-263,1081 L-270,1074 L-278,1067 L-288,1058 L-301,1046 L-317,1030 L-322,1025 L-340,1007 L-347,999 L-356,989 L-365,978 L-374,967 L-390,946 L-412,913 L-421,898 L-435,872 L-446,848 L-456,821 L-465,789 L-470,764 L-471,752 L-446,743 L-426,736 L-400,727 L-388,723 L-380,720 L-356,712 L-348,709 L-336,705 L-326,701 L-304,694 L-294,690 L-281,686 L-271,682 L-266,680 L-262,680 L-264,687 L-270,698 L-281,710 L-289,717 L-302,725 L-312,729 L-318,732 L-296,732 L-285,729 L-272,723 L-270,724 L-283,738 L-290,746 L-303,760 L-316,777 L-325,792 L-331,806 L-334,818 L-336,828 L-336,837 L-328,821 L-321,810 L-310,797 L-295,781 L-288,774 L-277,760 L-274,756 L-272,757 L-277,769 L-282,779 L-292,795 L-300,808 L-308,825 L-313,841 L-315,853 L-315,887 L-312,903 L-306,923 L-304,928 L-304,931 L-302,931 L-302,914 L-298,895 L-293,883 L-286,872 L-281,867 L-284,880 L-285,892 L-285,920 L-282,936 L-277,952 L-269,968 L-261,982 L-249,998 L-238,1011 L-228,1021 L-221,1026 L-228,1007 L-232,988 L-232,975 L-230,976 L-225,989 L-217,1003 L-208,1015 L-198,1026 L-190,1033 L-175,1045 L-156,1059 L-141,1072 L-132,1081 L-122,1094 L-114,1108 L-109,1123 L-108,1129 L-107,1154 L-100,1156 L-90,1158 L-85,1160 L-65,1161 L-57,1150 L-50,1136 L-45,1119 L-44,1110 L-44,1094 L-47,1079 L-52,1066 L-58,1055 L-67,1043 L-83,1027 L-99,1015 L-124,1000 L-157,983 L-171,974 L-185,963 L-194,954 L-205,939 L-213,924 L-218,909 L-221,895 L-221,868 L-218,853 L-216,852 L-212,872 L-204,890 L-196,904 L-183,919 L-173,928 L-159,937 L-151,941 L-150,940 L-159,928 L-166,916 L-173,897 L-175,888 L-172,891 L-162,907 L-150,920 L-140,930 L-121,944 L-93,961 L-75,973 L-59,985 L-47,996 L-39,1004 L-28,1019 L-20,1035 L-16,1048 L-15,1055 L-15,1077 L-9,1067 L-3,1053 L2,1034 L3,1018 L5,1019 L12,1036 L15,1049 L16,1057 L16,1078 L12,1099 L5,1118 L-3,1134 L-15,1151 L-29,1166 L-31,1168 L-30,1169 L-21,1170 L4,1170 L22,1165 L31,1162 L49,1155 L68,1145 L86,1134 L99,1124 L110,1115 L123,1103 L136,1090 L145,1079 L157,1064 L173,1040 L185,1017 L191,1003 L194,994 L195,994 L195,1017 L191,1039 L185,1055 L180,1065 L188,1058 L198,1049 L212,1035 L219,1027 L233,1009 L247,987 L255,972 L263,952 L269,932 L272,915 L274,919 L276,930 L276,950 L273,966 L277,962 L286,948 L293,934 L298,917 L299,911 L299,883 L297,870 L289,847 L288,843 L295,849 L303,857 L312,870 L315,875 L319,887 L319,890 L321,890 L316,865 L310,850 L302,836 L292,821 L289,815 L290,813 L300,821 L315,828 L326,831 L344,832 L344,830 L339,829 L328,823 L319,816 L310,807 L303,796 L296,782 L289,762 L280,742 L269,725 L258,712 L245,701 L231,693 L226,690 L235,703 L241,715 L245,726 L247,735 L247,760 L243,776 L236,792 L224,813 L219,825 L217,834 L216,849 L212,844 L209,835 L207,824 L201,834 L192,845 L174,863 L166,870 L151,884 L139,898 L129,913 L121,929 L116,944 L114,951 L112,947 L110,933 L110,910 L113,889 L118,871 L121,863 L126,851 L131,839 L134,833 L135,833 L135,858 L131,873 L133,873 L134,868 L146,849 L156,832 L163,816 L168,799 L169,793 L169,761 L167,748 L171,752 L177,762 L181,772 L184,784 L186,800 L189,788 L190,782 L190,752 L185,733 L177,717 L174,712 L178,714 L187,721 L193,726 L203,739 L210,753 L211,757 L211,738 L206,723 L198,710 L189,700 L184,695 L176,687 L168,680 L160,671 L153,657 L150,649 L149,642 L149,624 L150,612 L154,601 L154,599 L143,606 L133,615 L124,626 L119,636 L116,646 L114,658 L112,656 L111,653 L111,633 L112,631 L110,631 L108,636 L102,650 L99,665 L99,691 L102,706 L105,718 L98,712 L86,699 L77,684 L71,671 L68,660 L67,653 L67,636 L69,631 L57,637 L45,646 L36,655 L29,665 L26,670 L25,670 L26,654 L32,639 L39,627 L50,614 L63,604 L79,596 L100,589 L129,582 L154,572 L174,563 L190,557 L211,552 L216,552 L214,554 L205,559 L197,567 L191,577 L186,588 L187,587 L189,587 L196,600 L207,612 L215,618 L227,624 L227,626 L207,626 L197,623 L196,623 L203,634 L216,649 L226,659 L234,666 L249,681 L259,695 L263,702 L262,692 L258,680 L251,667 L241,654 L229,643 L217,634 L217,633 L235,631 L250,625 L236,621 L222,614 L212,606 L205,599 L200,589 L200,580 L206,571 L214,565 L224,561 L252,557 L266,552 L276,545 L283,538 L291,524 L296,510 L298,505 L328,497 L346,492 L354,490 L359,491 L372,516 L384,538 L398,565 L409,587 L422,617 L431,640 L438,661 L444,684 L447,695 L452,721 L455,744 L456,757 L456,795 L453,824 L448,850 L442,871 L433,897 L420,926 L407,950 L395,969 L383,986 L374,998 L365,1009 L354,1022 L343,1034 L334,1044 L304,1074 L296,1081 L282,1094 L271,1103 L261,1112 L250,1121 L240,1129 L259,1121 L267,1119 L267,1117 L290,1106 L313,1093 L328,1084 L337,1077 L351,1065 L377,1039 L384,1031 L395,1018 L406,1004 L419,986 L431,967 L442,948 L453,925 L463,900 L471,876 L475,860 L481,832 L484,808 L485,797 L485,754 L483,730 L480,707 L472,670 L466,651 L461,634 L450,605 L439,580 L423,546 L410,521 L397,498 L389,483 L389,480 L412,474 L421,471 L429,471 L437,476 L447,486 L458,501 L469,519 L481,542 L489,561 L497,587 L501,604 L505,632 L506,646 L506,699 L509,708 L514,716 L521,722 L530,726 L556,726 L566,723 L580,715 L590,706 L598,696 L605,686 L606,690 L600,717 L595,738 L585,772 L580,787 L575,799 L570,813 L563,828 L559,838 L549,857 L535,884 L525,900 L515,916 L504,932 L488,953 L477,967 L464,982 L453,994 L421,1026 L410,1035 L400,1044 L386,1055 L373,1065 L353,1079 L338,1089 L323,1098 L304,1109 L271,1126 L259,1132 L252,1135 L236,1141 L216,1149 L194,1156 L169,1163 L135,1171 L99,1177 L83,1179 L64,1180 L60,1181 L-5,1181 L-55,1176 L-84,1171 L-115,1164 L-119,1162 L-131,1160 L-174,1146 L-184,1142 L-199,1136 L-207,1132 L-217,1128 L-232,1121 L-259,1107 L-281,1094 L-314,1072 L-333,1058 L-349,1045 L-359,1037 L-370,1027 L-378,1020 L-391,1008 L-413,986 L-420,978 L-430,967 L-441,953 L-451,941 L-465,922 L-479,902 L-495,876 L-508,852 L-516,838 L-520,828 L-523,823 L-528,810 L-536,791 L-542,775 L-548,756 L-555,731 L-559,715 L-566,679 L-569,655 L-571,634 L-572,623 L-572,574 L-571,554 L-567,520 L-563,496 L-558,470 L-548,432 L-536,397 L-528,377 L-523,365 L-519,356 L-511,340 L-496,311 L-481,286 L-463,259 L-450,241 L-440,228 L-431,217 L-420,204 L-413,196 L-404,186 L-392,173 L-378,159 L-370,152 L-358,141 L-347,132 L-331,119 L-313,106 L-297,95 L-277,82 L-251,67 L-236,59 L-212,48 L-208,48 L-208,46 L-193,40 L-177,34 L-149,25 L-128,19 L-99,12 L-65,6 L-30,2 Z " fill="#090908" transform="translate(604,38)"/>
<path d="M0,0 L37,0 L73,2 L100,5 L115,7 L140,12 L151,14 L157,16 L174,20 L198,27 L212,32 L239,43 L252,48 L268,56 L278,61 L288,67 L293,69 L318,84 L333,94 L350,106 L350,110 L343,117 L331,133 L321,148 L308,173 L299,197 L294,215 L290,237 L289,262 L289,301 L291,317 L291,324 L282,323 L260,319 L258,318 L249,317 L247,316 L233,314 L226,312 L203,308 L195,306 L193,293 L186,285 L181,282 L179,268 L175,260 L170,254 L157,244 L144,234 L131,223 L118,214 L99,204 L72,194 L47,188 L28,184 L11,182 L-38,182 L-68,186 L-96,193 L-121,202 L-148,215 L-170,229 L-183,239 L-196,250 L-209,262 L-224,276 L-235,286 L-251,297 L-268,305 L-272,307 L-255,307 L-241,303 L-225,295 L-214,288 L-195,276 L-188,272 L-181,269 L-178,268 L-179,271 L-190,280 L-213,303 L-221,310 L-238,323 L-259,336 L-274,346 L-287,357 L-296,368 L-304,384 L-306,394 L-300,384 L-287,371 L-272,361 L-255,353 L-246,351 L-251,356 L-265,368 L-277,382 L-288,399 L-303,426 L-316,448 L-326,463 L-336,477 L-348,494 L-358,510 L-364,522 L-367,535 L-367,550 L-362,564 L-361,551 L-356,539 L-351,533 L-350,535 L-350,554 L-347,567 L-340,581 L-331,590 L-317,597 L-311,598 L-303,598 L-317,591 L-327,582 L-333,575 L-339,563 L-341,556 L-341,530 L-338,517 L-335,510 L-340,515 L-345,521 L-346,519 L-340,504 L-330,487 L-319,471 L-306,453 L-293,435 L-280,417 L-268,401 L-258,389 L-257,391 L-263,409 L-269,422 L-277,438 L-285,452 L-296,468 L-308,487 L-311,492 L-314,499 L-319,512 L-320,520 L-318,517 L-316,517 L-318,523 L-322,535 L-322,548 L-317,538 L-310,530 L-308,530 L-310,536 L-313,544 L-313,560 L-304,550 L-290,542 L-262,532 L-247,524 L-237,516 L-227,506 L-220,495 L-217,489 L-215,490 L-219,505 L-224,517 L-232,528 L-238,535 L-251,544 L-265,550 L-281,557 L-289,563 L-297,572 L-301,580 L-291,575 L-285,574 L-265,574 L-253,578 L-242,584 L-232,593 L-223,603 L-210,623 L-203,632 L-199,637 L-185,648 L-168,657 L-149,663 L-139,665 L-144,650 L-146,641 L-146,603 L-141,570 L-139,557 L-136,528 L-136,491 L-140,459 L-146,432 L-152,406 L-153,402 L-150,405 L-137,426 L-127,444 L-122,457 L-118,467 L-115,483 L-114,490 L-114,523 L-117,540 L-121,555 L-120,554 L-111,531 L-107,515 L-106,503 L-106,468 L-111,447 L-114,437 L-119,425 L-133,396 L-139,382 L-143,369 L-146,356 L-146,326 L-142,311 L-134,295 L-128,286 L-118,276 L-118,279 L-124,293 L-128,308 L-129,317 L-129,330 L-122,318 L-116,311 L-114,311 L-115,318 L-118,326 L-118,357 L-114,373 L-111,360 L-109,360 L-108,371 L-101,395 L-94,409 L-90,421 L-87,429 L-84,437 L-81,450 L-80,461 L-80,498 L-82,510 L-80,510 L-79,506 L-72,492 L-62,478 L-53,468 L-42,458 L-42,461 L-50,475 L-56,487 L-62,509 L-63,525 L-56,514 L-43,501 L-35,496 L-37,500 L-47,518 L-56,545 L-58,550 L-79,557 L-100,563 L-104,565 L-107,571 L-90,566 L-53,554 L-40,550 L-18,543 L-1,538 L20,531 L45,524 L61,519 L87,511 L72,511 L53,516 L51,516 L51,514 L64,505 L77,501 L84,500 L117,500 L139,502 L166,502 L186,499 L203,495 L220,489 L236,481 L250,472 L260,463 L268,454 L273,443 L274,440 L274,428 L269,419 L261,411 L247,401 L243,396 L262,396 L266,395 L251,392 L237,385 L229,377 L224,368 L224,358 L230,349 L239,341 L251,335 L262,332 L287,332 L301,335 L313,340 L322,346 L327,353 L328,356 L328,372 L323,382 L319,385 L316,378 L314,377 L314,401 L307,415 L292,435 L281,456 L278,464 L278,471 L282,476 L288,476 L296,470 L298,470 L300,466 L307,456 L311,449 L313,444 L314,447 L338,439 L402,419 L442,406 L455,402 L466,399 L478,399 L493,404 L504,411 L514,420 L527,433 L540,450 L553,470 L566,494 L579,521 L584,534 L589,546 L598,573 L603,594 L605,611 L605,637 L602,654 L594,673 L587,684 L578,695 L568,703 L562,707 L553,710 L543,712 L529,712 L519,708 L514,704 L508,694 L507,690 L507,635 L505,613 L499,582 L492,558 L484,537 L476,520 L464,499 L454,484 L441,468 L432,460 L425,457 L414,457 L398,461 L374,468 L347,475 L324,482 L309,486 L285,493 L283,504 L278,517 L272,526 L264,534 L252,540 L243,543 L237,543 L238,541 L251,536 L260,529 L267,522 L275,506 L276,501 L276,494 L273,492 L262,492 L239,499 L210,507 L193,513 L181,518 L164,528 L155,534 L137,544 L117,552 L102,557 L86,561 L70,563 L55,563 L57,561 L93,549 L131,536 L145,531 L158,525 L147,528 L123,536 L109,540 L93,545 L78,550 L50,559 L10,572 L-14,580 L-31,585 L-42,589 L-59,594 L-120,614 L-122,621 L-81,607 L-72,605 L-74,609 L-88,631 L-97,650 L-102,666 L-104,681 L-104,701 L-102,713 L-100,718 L-97,730 L-89,746 L-82,757 L-72,768 L-59,777 L-56,778 L-64,762 L-69,743 L-69,724 L-67,710 L-65,708 L-62,728 L-55,749 L-49,760 L-41,771 L-30,784 L-8,806 L2,819 L9,832 L8,834 L-2,825 L-18,815 L-34,807 L-57,797 L-72,789 L-78,785 L-70,803 L-62,814 L-56,822 L-62,820 L-69,816 L-88,807 L-107,795 L-121,785 L-131,776 L-139,769 L-151,756 L-162,740 L-169,728 L-168,738 L-164,752 L-156,768 L-152,773 L-152,775 L-157,773 L-169,764 L-181,752 L-191,737 L-200,718 L-205,704 L-205,729 L-209,725 L-218,708 L-229,676 L-236,662 L-238,658 L-229,654 L-224,654 L-227,650 L-236,652 L-291,671 L-299,674 L-311,678 L-319,681 L-338,688 L-350,692 L-354,690 L-372,663 L-376,657 L-376,655 L-346,645 L-317,636 L-274,622 L-255,616 L-255,614 L-256,612 L-264,613 L-320,631 L-370,647 L-392,654 L-401,657 L-414,662 L-428,666 L-451,674 L-461,677 L-471,680 L-478,682 L-478,671 L-474,644 L-472,632 L-468,616 L-459,587 L-455,577 L-446,556 L-434,531 L-421,508 L-409,488 L-397,469 L-381,444 L-361,414 L-345,389 L-332,367 L-320,344 L-312,328 L-306,311 L-298,287 L-295,277 L-293,265 L-290,251 L-287,232 L-287,178 L-292,149 L-298,128 L-302,119 L-305,111 L-308,105 L-310,103 L-295,93 L-278,82 L-263,73 L-245,63 L-223,52 L-216,49 L-190,38 L-155,26 L-130,19 L-95,11 L-78,8 L-42,3 Z " fill="#D38F1E" transform="translate(609,46)"/>
<path d="M0,0 L5,1 L18,26 L30,48 L44,75 L55,97 L68,127 L77,150 L84,171 L90,194 L93,205 L98,231 L101,254 L102,267 L102,305 L99,334 L94,360 L88,381 L79,407 L66,436 L53,460 L41,479 L29,496 L20,508 L11,519 L0,532 L-11,544 L-20,554 L-50,584 L-58,591 L-72,604 L-83,613 L-93,622 L-104,631 L-114,639 L-114,641 L-126,645 L-134,648 L-153,655 L-167,659 L-184,664 L-187,663 L-173,653 L-159,641 L-149,632 L-137,621 L-125,609 L-118,601 L-109,591 L-99,578 L-89,565 L-79,550 L-67,530 L-56,509 L-46,485 L-37,456 L-34,441 L-33,432 L-33,408 L-35,389 L-38,375 L-44,360 L-52,346 L-62,331 L-65,325 L-64,323 L-54,331 L-39,338 L-28,341 L-10,342 L-10,340 L-15,339 L-26,333 L-35,326 L-44,317 L-51,306 L-58,292 L-65,272 L-74,252 L-85,235 L-96,222 L-109,211 L-123,203 L-128,200 L-119,213 L-113,225 L-109,236 L-107,245 L-107,270 L-111,286 L-118,302 L-130,323 L-135,335 L-137,344 L-138,359 L-142,354 L-145,345 L-147,334 L-153,344 L-162,355 L-180,373 L-188,380 L-203,394 L-215,408 L-225,423 L-233,439 L-238,454 L-240,461 L-242,457 L-244,443 L-244,420 L-241,399 L-236,381 L-233,373 L-228,361 L-223,349 L-220,343 L-219,343 L-219,368 L-223,383 L-221,383 L-220,378 L-208,359 L-198,342 L-191,326 L-186,309 L-185,303 L-185,271 L-187,258 L-183,262 L-177,272 L-173,282 L-170,294 L-168,310 L-165,298 L-164,292 L-164,262 L-169,243 L-177,227 L-180,222 L-176,224 L-167,231 L-161,236 L-151,249 L-144,263 L-143,267 L-143,248 L-148,233 L-156,220 L-165,210 L-170,205 L-178,197 L-186,190 L-194,181 L-201,167 L-204,159 L-205,152 L-205,134 L-204,122 L-200,111 L-200,109 L-211,116 L-221,125 L-230,136 L-235,146 L-238,156 L-240,168 L-242,166 L-243,163 L-243,143 L-242,141 L-244,141 L-246,146 L-252,160 L-255,175 L-255,201 L-252,216 L-249,228 L-256,222 L-268,209 L-277,194 L-283,181 L-286,170 L-287,163 L-287,146 L-285,141 L-297,147 L-309,156 L-318,165 L-325,175 L-328,180 L-329,180 L-328,164 L-322,149 L-315,137 L-304,124 L-291,114 L-275,106 L-254,99 L-225,92 L-200,82 L-180,73 L-164,67 L-143,62 L-138,62 L-140,64 L-149,69 L-157,77 L-163,87 L-168,98 L-167,97 L-165,97 L-158,110 L-147,122 L-139,128 L-127,134 L-127,136 L-147,136 L-157,133 L-158,133 L-151,144 L-138,159 L-128,169 L-120,176 L-105,191 L-95,205 L-91,212 L-92,202 L-96,190 L-103,177 L-113,164 L-125,153 L-137,144 L-137,143 L-119,141 L-104,135 L-118,131 L-132,124 L-142,116 L-149,109 L-154,99 L-154,90 L-148,81 L-140,75 L-130,71 L-102,67 L-88,62 L-78,55 L-71,48 L-63,34 L-58,20 L-56,15 L-26,7 L-8,2 Z " fill="#D38F1E" transform="translate(958,528)"/>
<path d="M0,0 L2,0 L0,9 L0,40 L4,56 L7,43 L9,43 L10,54 L17,78 L24,92 L28,104 L31,112 L34,120 L37,133 L38,144 L38,181 L36,193 L38,193 L39,189 L46,175 L56,161 L65,151 L76,141 L76,144 L68,158 L62,170 L56,192 L55,208 L62,197 L75,184 L83,179 L81,183 L71,201 L62,228 L60,233 L39,240 L18,246 L14,248 L11,254 L28,249 L65,237 L78,233 L100,226 L117,221 L138,214 L163,207 L179,202 L205,194 L190,194 L171,199 L169,199 L169,197 L182,188 L195,184 L202,183 L235,183 L257,185 L284,185 L304,182 L321,178 L338,172 L354,164 L368,155 L378,146 L386,137 L391,126 L392,123 L392,111 L387,102 L379,94 L365,84 L361,79 L380,79 L384,78 L369,75 L355,68 L347,60 L342,51 L342,41 L348,32 L357,24 L369,18 L380,15 L405,15 L419,18 L431,23 L440,29 L445,36 L446,39 L446,55 L441,65 L437,68 L434,61 L432,60 L432,84 L425,98 L410,118 L399,139 L396,147 L396,154 L400,159 L406,159 L414,153 L416,153 L418,149 L425,139 L429,132 L431,127 L432,130 L456,122 L520,102 L560,89 L573,85 L584,82 L596,82 L611,87 L622,94 L632,103 L645,116 L658,133 L671,153 L684,177 L697,204 L702,217 L707,229 L716,256 L721,277 L723,294 L723,320 L720,337 L712,356 L705,367 L696,378 L686,386 L680,390 L671,393 L661,395 L647,395 L637,391 L632,387 L626,377 L625,373 L625,318 L623,296 L617,265 L610,241 L602,220 L594,203 L582,182 L572,167 L559,151 L550,143 L543,140 L532,140 L516,144 L492,151 L465,158 L442,165 L427,169 L403,176 L401,187 L396,200 L390,209 L382,217 L370,223 L361,226 L355,226 L356,224 L369,219 L378,212 L385,205 L393,189 L394,184 L394,177 L391,175 L380,175 L357,182 L328,190 L311,196 L299,201 L282,211 L273,217 L255,227 L235,235 L220,240 L204,244 L188,246 L173,246 L175,244 L211,232 L249,219 L263,214 L276,208 L265,211 L241,219 L227,223 L211,228 L196,233 L168,242 L128,255 L104,263 L87,268 L76,272 L59,277 L-2,297 L-4,304 L37,290 L46,288 L44,292 L30,314 L21,333 L16,349 L14,364 L14,384 L16,396 L18,401 L21,413 L29,429 L36,440 L46,451 L59,460 L62,461 L54,445 L49,426 L49,407 L51,393 L53,391 L56,411 L63,432 L69,443 L77,454 L88,467 L110,489 L120,502 L127,515 L126,517 L116,508 L100,498 L84,490 L61,480 L46,472 L40,468 L48,486 L56,497 L62,505 L56,503 L49,499 L30,490 L11,478 L-3,468 L-13,459 L-21,452 L-33,439 L-44,423 L-51,411 L-50,421 L-46,435 L-38,451 L-34,456 L-34,458 L-39,456 L-51,447 L-63,435 L-73,420 L-82,401 L-87,387 L-87,412 L-91,408 L-100,391 L-111,359 L-118,345 L-120,341 L-111,337 L-106,337 L-109,333 L-118,335 L-173,354 L-181,357 L-193,361 L-201,364 L-220,371 L-232,375 L-236,373 L-254,346 L-258,340 L-258,338 L-228,328 L-199,319 L-156,305 L-137,299 L-137,297 L-145,286 L-155,278 L-165,273 L-168,271 L-156,271 L-142,275 L-131,282 L-119,294 L-104,316 L-93,329 L-85,336 L-71,345 L-60,350 L-42,356 L-17,361 L1,363 L-7,348 L-11,335 L-13,322 L-13,296 L-10,280 L-4,262 L0,254 L4,244 L12,225 L16,213 L18,206 L20,197 L22,191 L23,176 L23,148 L20,131 L16,116 L10,98 L6,90 L0,74 L-6,58 L-9,45 L-9,22 L-4,7 Z " fill="#040607" transform="translate(491,363)"/>
<path d="M0,0 L3,1 L10,20 L15,38 L19,64 L19,110 L15,134 L11,150 L3,176 L-6,198 L-17,221 L-28,240 L-39,258 L-56,284 L-71,307 L-82,324 L-95,345 L-111,372 L-123,394 L-132,411 L-145,440 L-150,455 L-153,462 L-159,480 L-165,506 L-169,527 L-171,550 L-173,569 L-183,573 L-189,578 L-192,583 L-192,597 L-189,608 L-182,621 L-176,626 L-169,629 L-165,653 L-161,669 L-157,683 L-152,699 L-149,709 L-144,721 L-133,746 L-120,772 L-105,797 L-89,821 L-78,835 L-70,845 L-61,856 L-49,869 L-41,878 L-44,878 L-76,846 L-83,838 L-95,824 L-108,808 L-123,788 L-135,771 L-149,749 L-159,732 L-169,714 L-183,685 L-187,677 L-191,666 L-195,656 L-203,635 L-209,616 L-212,604 L-216,590 L-221,567 L-225,546 L-229,515 L-230,500 L-230,429 L-228,406 L-224,377 L-220,353 L-212,320 L-205,296 L-195,267 L-191,257 L-182,236 L-176,223 L-168,206 L-156,184 L-143,162 L-123,132 L-109,113 L-99,100 L-88,86 L-79,76 L-72,68 L-61,56 L-31,26 L-20,17 L-10,8 Z " fill="#D48F1D" transform="translate(271,170)"/>
<path d="M0,0 L4,0 L2,7 L-4,18 L-15,30 L-23,37 L-36,45 L-46,49 L-52,52 L-30,52 L-19,49 L-6,43 L-4,44 L-17,58 L-24,66 L-37,80 L-50,97 L-59,112 L-65,126 L-68,138 L-70,148 L-70,157 L-62,141 L-55,130 L-44,117 L-29,101 L-22,94 L-11,80 L-8,76 L-6,77 L-11,89 L-16,99 L-26,115 L-34,128 L-42,145 L-47,161 L-49,173 L-49,207 L-46,223 L-40,243 L-38,248 L-38,251 L-36,251 L-36,234 L-32,215 L-27,203 L-20,192 L-15,187 L-18,200 L-19,212 L-19,240 L-16,256 L-11,272 L-3,288 L5,302 L17,318 L28,331 L38,341 L45,346 L38,327 L34,308 L34,295 L36,296 L41,309 L49,323 L58,335 L68,346 L76,353 L91,365 L110,379 L125,392 L134,401 L144,414 L152,428 L157,443 L158,449 L159,474 L166,476 L176,478 L181,480 L181,481 L173,480 L150,475 L126,468 L98,459 L88,455 L63,445 L33,431 L31,427 L16,413 L0,398 L-13,386 L-21,379 L-36,365 L-51,350 L-56,345 L-74,327 L-81,319 L-90,309 L-99,298 L-108,287 L-124,266 L-146,233 L-155,218 L-169,192 L-180,168 L-190,141 L-199,109 L-204,84 L-205,72 L-180,63 L-160,56 L-134,47 L-122,43 L-114,40 L-90,32 L-82,29 L-70,25 L-60,21 L-38,14 L-28,10 L-15,6 L-5,2 Z " fill="#D4901E" transform="translate(338,718)"/>
<path d="M0,0 L4,1 L14,10 L25,19 L36,30 L44,37 L55,48 L62,56 L75,70 L84,81 L95,94 L109,113 L119,127 L129,142 L142,163 L152,181 L164,204 L175,228 L185,253 L195,283 L202,305 L208,329 L212,347 L213,356 L214,358 L218,386 L220,399 L221,420 L219,418 L211,398 L200,373 L185,344 L172,324 L164,313 L155,301 L140,285 L126,274 L111,267 L103,265 L86,265 L65,271 L41,279 L24,284 L-18,297 L-20,297 L-28,281 L-31,273 L-36,261 L-40,249 L-40,226 L-45,216 L-51,209 L-54,194 L-57,169 L-57,127 L-54,104 L-47,78 L-39,58 L-31,42 L-21,26 L-9,10 Z " fill="#D4901F" transform="translate(986,175)"/>
<path d="M0,0 L8,0 L16,5 L26,15 L37,30 L48,48 L60,71 L68,90 L76,116 L80,133 L84,161 L85,175 L85,228 L88,237 L93,245 L100,251 L109,255 L135,255 L145,252 L159,244 L169,235 L177,225 L184,215 L185,219 L180,224 L174,232 L169,251 L166,265 L158,292 L153,308 L148,320 L144,332 L138,345 L135,352 L122,380 L112,399 L100,420 L86,442 L72,462 L59,479 L46,495 L37,505 L30,513 L14,530 L-2,545 L-15,557 L-26,566 L-41,578 L-60,592 L-74,602 L-83,608 L-86,608 L-76,599 L-68,592 L-44,568 L-37,560 L-26,547 L-15,533 L-2,515 L10,496 L21,477 L32,454 L42,429 L50,405 L54,389 L60,361 L63,337 L64,326 L64,283 L62,259 L59,236 L51,199 L45,180 L40,163 L29,134 L18,109 L2,75 L-11,50 L-24,27 L-32,12 L-32,9 L-9,3 Z " fill="#D49121" transform="translate(1025,509)"/>
<path d="M0,0 L1,0 L5,20 L13,38 L21,52 L34,67 L44,76 L58,85 L66,89 L67,88 L58,76 L51,64 L44,45 L42,36 L45,39 L55,55 L67,68 L77,78 L96,92 L124,109 L142,121 L158,133 L170,144 L178,152 L189,167 L197,183 L201,196 L202,203 L202,225 L208,215 L214,201 L219,182 L220,166 L222,167 L229,184 L232,197 L233,205 L233,226 L229,247 L222,266 L214,282 L202,299 L188,314 L185,317 L168,316 L143,312 L136,310 L136,309 L152,309 L160,298 L167,284 L172,267 L173,258 L173,242 L170,227 L165,214 L159,203 L150,191 L134,175 L118,163 L93,148 L60,131 L46,122 L32,111 L23,102 L12,87 L4,72 L-1,57 L-4,43 L-4,16 L-1,1 Z " fill="#D38F1F" transform="translate(387,890)"/>
<path d="M0,0 L2,0 L8,17 L14,35 L19,56 L21,73 L21,99 L18,116 L10,135 L3,146 L-6,157 L-16,165 L-22,169 L-31,172 L-41,174 L-55,174 L-65,170 L-70,166 L-76,156 L-77,152 L-77,97 L-79,75 L-82,59 L-82,52 L-72,45 L-52,33 L-30,19 L-6,4 Z " fill="#030506" transform="translate(1193,584)"/>
<path d="M0,0 L5,0 L3,2 L-6,7 L-14,15 L-20,25 L-26,38 L-32,59 L-34,69 L-34,90 L-31,103 L-26,116 L-20,127 L-12,137 L-2,147 L-6,148 L-23,142 L-34,136 L-44,127 L-51,119 L-58,105 L-61,97 L-62,90 L-62,72 L-61,60 L-57,49 L-57,47 L-68,54 L-78,63 L-87,74 L-92,84 L-95,94 L-97,106 L-99,104 L-100,101 L-100,81 L-99,79 L-101,79 L-103,84 L-109,98 L-112,113 L-112,139 L-109,154 L-106,166 L-113,160 L-125,147 L-134,132 L-140,119 L-143,108 L-144,101 L-144,84 L-142,79 L-154,85 L-166,94 L-175,103 L-182,113 L-185,118 L-186,118 L-185,102 L-179,87 L-172,75 L-161,62 L-148,52 L-132,44 L-111,37 L-82,30 L-57,20 L-37,11 L-21,5 Z " fill="#040607" transform="translate(815,590)"/>
<path d="M0,0 L14,0 L23,3 L31,8 L34,12 L34,14 L36,14 L36,3 L39,6 L42,14 L42,27 L41,37 L46,42 L56,42 L55,47 L50,55 L46,59 L32,60 L21,63 L23,56 L23,52 L16,60 L8,64 L-9,64 L-23,59 L-31,55 L-39,55 L-54,57 L-49,52 L-39,43 L-28,33 L-15,24 L-3,18 L5,16 L14,15 L9,11 L6,9 L-1,8 L-13,8 L-18,9 L-15,6 L-5,1 Z " fill="#060808" transform="translate(633,307)"/>
<path d="M0,0 L1,0 L4,20 L11,41 L17,52 L25,63 L36,76 L58,98 L68,111 L75,124 L74,126 L64,117 L48,107 L32,99 L9,89 L-6,81 L-12,77 L-4,95 L4,106 L5,109 L0,107 L-9,100 L-21,89 L-30,80 L-39,67 L-45,55 L-48,47 L-50,39 L-50,25 L-48,25 L-41,35 L-38,38 L-38,40 L-34,42 L-24,51 L-9,60 L-6,60 L7,69 L10,70 L2,54 L-3,35 L-3,16 L-1,2 Z " fill="#D39020" transform="translate(543,754)"/>
<path d="M0,0 L3,1 L13,25 L14,29 L4,36 L-14,47 L-33,59 L-57,74 L-68,81 L-70,83 L-75,62 L-78,50 L-63,40 L-47,30 L-30,19 L-13,8 Z " fill="#060605" transform="translate(1180,555)"/>
<path d="M0,0 L4,2 L27,37 L27,39 L15,44 L5,47 L-3,50 L-10,50 L-17,44 L-23,32 L-25,24 L-25,12 L-21,7 L-10,3 Z " fill="#050708" transform="translate(110,742)"/>
<path d="M0,0 L3,0 L28,37 L28,39 L8,46 L-2,50 L-7,49 L-17,35 L-31,14 L-30,10 L-21,7 L-10,4 Z " fill="#060809" transform="translate(150,728)"/>
<path d="M0,0 L4,1 L27,35 L27,38 L12,43 L4,46 L-1,48 L-5,47 L-28,12 L-28,9 L-15,5 L-8,2 Z " fill="#050708" transform="translate(188,716)"/>
<path d="M0,0 L3,0 L13,15 L27,36 L27,38 L13,42 L3,46 L-2,47 L-26,11 L-26,9 L-10,3 Z " fill="#06090A" transform="translate(224,704)"/>
<path d="M0,0 L4,2 L4,5 L-19,18 L-38,26 L-56,32 L-72,36 L-88,38 L-103,38 L-101,36 L-65,24 L-27,11 L-13,6 Z " fill="#0E0F0F" transform="translate(767,571)"/>
<path d="M0,0 L5,0 L8,5 L-25,16 L-56,26 L-100,40 L-104,39 L-103,36 L-110,38 L-112,36 L-63,20 L-22,7 Z M-102,34 Z " fill="#F5F2EB" transform="translate(348,657)"/>
<path d="M0,0 L3,4 L2,8 L-17,20 L-39,34 L-60,47 L-79,59 L-81,61 L-82,53 L-72,46 L-52,34 L-38,25 L-14,10 L-2,2 L0,2 Z " fill="#D3921B" transform="translate(1191,577)"/>
<path d="M0,0 L3,4 L4,7 L-8,14 L-28,27 L-47,39 L-64,50 L-75,57 L-78,54 L-77,50 L-55,36 L-38,25 L-13,9 Z " fill="#D3921B" transform="translate(1178,548)"/>
<path d="M0,0 L2,0 L4,6 L4,18 L14,18 L20,22 L25,28 L26,35 L17,34 L5,30 L-1,26 L-5,19 L-5,12 L-1,2 Z " fill="#131414" transform="translate(772,315)"/>
<path d="M0,0 L3,1 L-11,8 L-25,13 L-63,26 L-99,38 L-102,37 L-100,32 L-78,25 L-60,19 L-47,15 L-24,8 Z " fill="#E6E6E6" transform="translate(765,570)"/>
<path d="M0,0 L13,0 L19,4 L19,6 L8,8 L-1,13 L-6,18 L-12,27 L-17,25 L-19,22 L-19,13 L-13,6 L-3,1 Z " fill="#EFEFEF" transform="translate(882,402)"/>
<path d="M0,0 L1,2 L3,2 L4,8 L-2,16 L-9,23 L-21,29 L-30,32 L-36,32 L-35,30 L-22,25 L-13,18 L-6,11 Z " fill="#141415" transform="translate(882,557)"/>
<path d="M0,0 L3,1 L-11,8 L-25,13 L-54,23 L-59,23 L-57,19 L-38,12 L-24,8 Z " fill="#EFEFEF" transform="translate(765,570)"/>
<path d="M0,0 L7,0 L8,1 L7,10 L2,14 L-4,14 L-8,10 L-8,4 Z " fill="#ECEDED" transform="translate(632,337)"/>
<path d="M0,0 L2,0 L9,19 L9,21 L-5,25 L-4,17 L-1,7 Z " fill="#D69427" transform="translate(931,460)"/>
<path d="M0,0 L1,0 L2,28 L4,27 L5,32 L1,45 L-6,62 L-8,61 L-3,42 L-1,29 Z " fill="#F9F3E6" transform="translate(495,540)"/>
<path d="M0,0 L17,0 L15,2 L-11,10 L-15,8 L-16,4 Z " fill="#E6E6E6" transform="translate(681,556)"/>
<path d="M0,0 L5,5 L21,22 L28,30 L25,30 L-1,4 Z " fill="#D6961C" transform="translate(202,1018)"/>
<path d="M0,0 L5,0 L4,5 L-11,10 L-14,9 L-12,4 Z " fill="#EBEBEB" transform="translate(677,598)"/>
<path d="M0,0 L1,0 L3,20 L1,20 L0,15 L-1,36 L-3,35 L-3,16 L-1,2 Z " fill="#D79828" transform="translate(543,754)"/>
<path d="M0,0 L1,0 L1,7 L3,7 L4,28 L2,26 L-4,11 L-3,8 L-1,7 Z " fill="#D89828" transform="translate(1203,567)"/>
<path d="M0,0 L4,1 L1,3 L1,7 L-3,9 L-9,10 L-12,7 L-18,7 L-15,5 L-1,1 Z " fill="#F3ECDF" transform="translate(217,699)"/>
<path d="M0,0 L2,0 L0,9 L-1,32 L-2,32 L-3,16 L-7,22 L-8,18 L-3,6 Z " fill="#2E2A23" transform="translate(491,363)"/>
<path d="M0,0 L3,4 L4,7 L-8,14 L-11,15 L-11,13 L-8,10 L-6,4 Z " fill="#CD8D1B" transform="translate(1178,548)"/>
<path d="M0,0 L3,4 L2,8 L-5,12 L-9,12 L-10,8 L-2,2 L0,2 Z " fill="#CF9122" transform="translate(1191,577)"/>
<path d="M0,0 L1,0 L2,16 L1,47 L0,47 L-1,35 L-1,15 Z " fill="#C38717" transform="translate(42,584)"/>
<path d="M0,0 L3,1 L-11,8 L-21,12 L-23,11 L-22,7 L-5,2 Z " fill="#DADADA" transform="translate(765,570)"/>
<path d="M0,0 L3,0 L4,4 L4,6 L-4,11 L-6,13 L-7,5 Z " fill="#D19021" transform="translate(1116,625)"/>
<path d="M0,0 L18,3 L16,5 L12,6 L-5,6 L-1,5 Z " fill="#DDDCDC" transform="translate(859,437)"/>
<path d="M0,0 L3,3 L9,13 L7,14 L7,26 L5,22 L1,4 Z " fill="#DA9B32" transform="translate(456,448)"/>
<path d="M0,0 L1,0 L2,28 L4,27 L5,32 L4,37 L1,34 L-1,39 L-2,35 L-1,29 Z " fill="#EED9B4" transform="translate(495,540)"/>
<path d="M0,0 L2,1 L-4,4 L-4,7 L-2,9 L-11,11 L-14,9 L-11,6 L-12,4 Z " fill="#EAE9E8" transform="translate(175,713)"/>
<path d="M0,0 L2,0 L1,30 L-1,30 L-1,7 Z " fill="#D59A38" transform="translate(715,941)"/>
<path d="M0,0 L2,0 L1,16 L-3,13 L-7,16 L-4,7 Z " fill="#E0E1E1" transform="translate(714,669)"/>
<path d="M0,0 L2,1 L7,14 L6,16 L3,16 L1,19 L0,13 Z " fill="#DB9E3C" transform="translate(372,1013)"/>
<path d="M0,0 L3,3 L11,16 L9,18 L5,18 L0,2 Z " fill="#D79223" transform="translate(429,926)"/>
<path d="M0,0 L7,6 L10,10 L7,15 L6,19 L1,4 Z " fill="#252626" transform="translate(892,881)"/>
<path d="M0,0 L1,0 L1,23 L0,23 L0,14 L-4,16 L-4,12 L-1,1 Z " fill="#212122" transform="translate(798,1032)"/>
<path d="M0,0 L1,0 L3,10 L2,14 L0,16 L-3,16 L-2,6 Z " fill="#DB9E3C" transform="translate(387,890)"/>
<path d="M0,0 L2,1 L-1,6 L2,7 L-12,13 L-15,12 L-7,6 Z " fill="#F1EEE5" transform="translate(857,1155)"/>
<path d="M0,0 L4,5 L5,8 L6,1 L7,1 L7,22 L5,19 L1,5 Z " fill="#B68838" transform="translate(1210,605)"/>
<path d="M0,0 L1,2 L-3,14 L-7,13 L-9,15 L-12,14 L-3,4 Z " fill="#D89A35" transform="translate(351,435)"/>
<path d="M0,0 L3,1 L-3,8 L-9,13 L-12,14 L-12,11 L-2,2 Z " fill="#CD8C18" transform="translate(811,1158)"/>
<path d="M0,0 L4,0 L5,3 L-5,7 L-10,7 L-8,3 Z " fill="#EBEBEB" transform="translate(716,586)"/>
<path d="M0,0 L2,2 L3,15 L3,25 L1,23 L0,20 Z " fill="#2E2F2E" transform="translate(715,671)"/>
<path d="M0,0 L4,1 L-2,2 L-1,4 L9,6 L9,7 L-8,7 L-13,8 L-10,5 Z " fill="#555656" transform="translate(628,308)"/>
<path d="M0,0 L0,3 L-6,13 L-7,11 L-13,15 L-15,14 L-5,4 Z " fill="#181818" transform="translate(567,504)"/>
<path d="M0,0 L1,2 L-2,13 L-3,10 L-6,10 L-7,15 L-10,18 L-10,15 L-4,5 Z " fill="#D99C39" transform="translate(322,905)"/>
<path d="M0,0 L2,1 L-2,11 L-8,15 L-11,14 L-2,3 Z " fill="#DC9E39" transform="translate(330,794)"/>
<path d="M0,0 L2,0 L1,7 L-2,6 L-4,12 L-10,15 L-8,10 Z " fill="#D29936" transform="translate(493,357)"/>
<path d="M0,0 L4,2 L13,11 L18,18 L14,16 L0,2 Z " fill="#CC9625" transform="translate(212,1031)"/>
<path d="M0,0 L4,0 L4,3 L-8,7 L-14,7 L-13,5 Z " fill="#121212" transform="translate(860,582)"/>
<path d="M0,0 L6,2 L14,5 L14,6 L3,6 L-3,5 Z " fill="#FBF5E8" transform="translate(295,639)"/>
<path d="M0,0 L8,0 L20,2 L27,5 L27,6 L19,5 L0,1 Z " fill="#B37E19" transform="translate(492,1193)"/>
<path d="M0,0 L2,0 L2,2 L10,4 L10,5 L-7,5 L-9,3 Z " fill="#F8F1E3" transform="translate(344,349)"/>
<path d="M0,0 L5,2 L9,5 L14,8 L16,11 L10,9 L3,5 L-3,2 Z " fill="#633F14" transform="translate(537,857)"/>
<path d="M0,0 L4,5 L6,10 L3,17 L2,17 L0,7 Z " fill="#E5E5E5" transform="translate(439,772)"/>
<path d="M0,0 L1,0 L1,9 L0,19 L-1,19 L-2,24 L-3,24 L-2,7 Z " fill="#C08915" transform="translate(46,560)"/>
<path d="M0,0 L2,1 L1,29 L-2,33 L-4,33 L-1,24 Z " fill="#939395" transform="translate(923,423)"/>
<path d="M0,0 L3,2 L-14,7 L-17,6 L-9,1 L0,2 Z " fill="#BA8211" transform="translate(788,1185)"/>
<path d="M0,0 L1,0 L3,16 L1,16 L-3,5 L-3,3 Z " fill="#DCD7CE" transform="translate(922,912)"/>
<path d="M0,0 L5,2 L15,6 L10,11 L5,6 Z " fill="#CB8B22" transform="translate(783,727)"/>
<path d="M0,0 L2,0 L0,6 L-3,9 L-5,13 L-9,13 L-7,8 Z " fill="#DB9E37" transform="translate(299,576)"/>
<path d="M0,0 L1,2 L-3,11 L-5,11 L-6,13 L-6,11 L-10,12 L-6,6 L-1,1 Z " fill="#F8EFDC" transform="translate(274,555)"/>
<path d="M0,0 L2,3 L-1,9 L1,9 L1,14 L-2,17 L-4,20 L-3,10 Z " fill="#F6E8D1" transform="translate(293,869)"/>
<path d="M0,0 L1,0 L1,21 L-1,19 L-3,10 L-1,8 Z " fill="#F7F1E1" transform="translate(815,776)"/>
<path d="M0,0 L3,0 L7,2 L-1,7 L-3,7 L-3,5 L-6,4 Z " fill="#1A1A1B" transform="translate(867,577)"/>
<path d="M0,0 L0,3 L-5,11 L-6,9 L-9,11 L-12,10 L-4,3 Z " fill="#222223" transform="translate(573,542)"/>
<path d="M0,0 L1,0 L2,9 L1,9 L0,35 L-1,35 L-1,5 Z " fill="#D59E40" transform="translate(464,367)"/>
<path d="M0,0 L1,0 L2,12 L4,12 L4,10 L6,10 L4,16 L-1,21 Z " fill="#F3E4C6" transform="translate(589,1095)"/>
<path d="M0,0 L1,0 L2,25 L0,31 L-2,33 L-1,23 Z " fill="#616162" transform="translate(904,926)"/>
<path d="M0,0 L4,4 L8,9 L8,11 L3,9 L-2,4 Z " fill="#DBA237" transform="translate(540,852)"/>
<path d="M0,0 L5,0 L3,2 L-7,7 L-8,3 L-10,2 Z " fill="#272829" transform="translate(815,590)"/>
<path d="M0,0 L1,0 L2,26 L0,31 L-1,31 Z " fill="#DFB15E" transform="translate(504,526)"/>
<path d="M0,0 L2,0 L2,9 L1,14 L-3,16 L-1,3 Z " fill="#4B4C4C" transform="translate(498,406)"/>
<path d="M0,0 L2,3 L2,11 L-1,12 L-4,7 L-4,5 L-2,5 Z " fill="#F9F9F8" transform="translate(920,903)"/>
<path d="M0,0 L4,2 L4,5 L-1,8 L-3,8 L-2,4 L-5,3 Z " fill="#151717" transform="translate(767,571)"/>
<path d="M0,0 L3,1 L-8,12 L-13,13 L-8,8 Z " fill="#D89930" transform="translate(380,554)"/>
<path d="M0,0 L5,2 L11,9 L2,6 L-1,3 L1,2 Z " fill="#E2DCCF" transform="translate(361,1139)"/>
<path d="M0,0 L1,0 L1,5 L4,4 L3,9 L0,16 L-1,16 L-1,5 Z " fill="#F6EBD4" transform="translate(268,861)"/>
<path d="M0,0 L4,2 L-1,4 L-3,14 L-4,14 L-5,2 Z " fill="#D79528" transform="translate(138,788)"/>
<path d="M0,0 L5,5 L10,12 L6,10 L3,8 L1,8 L0,10 Z " fill="#D7981D" transform="translate(494,780)"/>
<path d="M0,0 L1,0 L1,20 L-1,17 L-4,11 L-4,9 L-1,8 Z " fill="#181512" transform="translate(1215,596)"/>
<path d="M0,0 L3,0 L3,4 L0,6 L-5,7 L-6,2 Z " fill="#DBDBDB" transform="translate(705,589)"/>
<path d="M0,0 L3,2 L3,7 L-1,10 L-3,16 L-5,17 L-2,6 Z " fill="#312106" transform="translate(507,576)"/>
<path d="M0,0 L3,1 L3,12 L1,17 L-1,17 Z " fill="#DA9D35" transform="translate(947,405)"/>
<path d="M0,0 L2,4 L3,13 L0,12 L-2,15 L-1,4 Z " fill="#2C2C2D" transform="translate(876,953)"/>
<path d="M0,0 L17,0 L15,2 L9,4 L5,4 L5,1 L0,1 Z " fill="#D7D7D7" transform="translate(681,556)"/>
<path d="M0,0 L2,1 L-1,14 L-3,12 L-6,12 Z " fill="#DCA143" transform="translate(392,535)"/>
<path d="M0,0 L17,0 L15,1 L15,3 L5,3 L5,1 L0,1 Z " fill="#F8F4E8" transform="translate(1072,439)"/>
<path d="M0,0 L1,0 L1,6 L10,6 L15,7 L15,9 L17,10 L8,9 L0,7 Z " fill="#DCA94C" transform="translate(804,345)"/>
<path d="M0,0 L17,2 L17,3 L1,3 L-5,2 L-5,1 Z " fill="#C08317" transform="translate(554,1203)"/>
<path d="M0,0 L4,1 L3,5 L-2,10 L-4,10 L-2,5 Z " fill="#D2D2D2" transform="translate(788,1093)"/>
<path d="M0,0 L2,1 L2,3 L-3,5 L-4,4 L-7,7 L-14,7 L-12,5 L-5,2 Z " fill="#252626" transform="translate(835,532)"/>
<path d="M0,0 L2,1 L2,4 L4,5 L-2,14 L-3,10 Z " fill="#F5E8CE" transform="translate(305,427)"/>
<path d="M0,0 L2,1 L5,12 L0,11 Z " fill="#E8E8E9" transform="translate(403,749)"/>
<path d="M0,0 L1,0 L0,9 L-2,13 L-4,9 L-6,8 Z " fill="#2D251B" transform="translate(1208,728)"/>
<path d="M0,0 L1,2 L0,4 L-9,4 L-14,3 L-10,1 Z " fill="#252627" transform="translate(648,322)"/>
<path d="M0,0 L4,1 L2,3 L-11,5 L-15,3 Z " fill="#B78111" transform="translate(519,56)"/>
<path d="M0,0 L3,4 L8,11 L8,13 L3,11 L0,8 L0,4 Z " fill="#2F2F2F" transform="translate(449,808)"/>
<path d="M0,0 L1,0 L2,6 L2,22 L1,22 L0,12 L-1,12 L-1,2 Z " fill="#19191A" transform="translate(700,701)"/>
<path d="M0,0 L4,1 L6,5 L-5,4 L-9,3 Z " fill="#BEBEBE" transform="translate(379,695)"/>
<path d="M0,0 L5,1 L7,2 L7,4 L-1,6 L-1,2 Z M5,0 Z " fill="#EBECEB" transform="translate(665,602)"/>
<path d="M0,0 L2,0 L0,4 L-8,11 L-12,15 L-14,14 Z " fill="#181819" transform="translate(737,1131)"/>
<path d="M0,0 L1,0 L1,16 L-1,16 L-1,21 L-2,21 L-2,13 Z " fill="#DBAA50" transform="translate(467,621)"/>
<path d="M0,0 L3,1 L-3,8 L-7,12 L-8,9 L-1,1 Z " fill="#D99B2E" transform="translate(305,596)"/>
<path d="M0,0 L1,0 L2,11 L3,15 L2,16 L1,26 L0,26 Z " fill="#D79F3E" transform="translate(268,576)"/>
<path d="M0,0 L4,1 L4,4 L-3,6 L-4,3 L-6,2 Z " fill="#DEDEDE" transform="translate(724,583)"/>
<path d="M0,0 L1,0 L2,21 L0,19 L-1,16 Z " fill="#B27F1C" transform="translate(1205,574)"/>
<path d="M0,0 L12,0 L10,2 L6,3 L-5,3 L-5,2 L0,2 Z " fill="#F4F4F4" transform="translate(865,440)"/>
<path d="M0,0 L0,3 L-8,9 L-8,7 L-12,6 Z " fill="#DDA646" transform="translate(430,314)"/>
<path d="M0,0 L6,5 L8,10 L10,10 L13,14 L12,16 L2,5 Z " fill="#D79A1A" transform="translate(173,988)"/>
<path d="M0,0 L4,4 L6,9 L4,12 L2,13 Z " fill="#D89836" transform="translate(771,786)"/>
<path d="M0,0 L3,3 L3,19 L2,19 L0,13 Z " fill="#D08D18" transform="translate(479,390)"/>
<path d="M0,0 L7,0 L14,2 L14,4 L17,5 L10,4 L0,1 Z " fill="#B57C14" transform="translate(464,1185)"/>
<path d="M0,0 L4,2 L-7,6 L-9,5 L-9,3 Z " fill="#D8982A" transform="translate(239,753)"/>
<path d="M0,0 L4,2 L-4,5 L-9,4 L-6,2 Z M-9,5 L-7,6 Z " fill="#D99728" transform="translate(265,744)"/>
<path d="M0,0 L4,1 L0,3 L-2,2 L-2,4 L-12,7 L-13,5 Z " fill="#323333" transform="translate(180,718)"/>
<path d="M0,0 L2,4 L1,9 L-2,16 L-4,15 Z " fill="#F0DEB8" transform="translate(491,586)"/>
<path d="M0,0 L3,0 L2,3 L-4,5 L-10,4 L-7,2 Z " fill="#222424" transform="translate(636,575)"/>
<path d="M0,0 L1,0 L1,7 L-4,17 L-6,18 L-3,9 Z " fill="#CDCDCE" transform="translate(892,547)"/>
<path d="M0,0 L2,3 L5,13 L4,17 L2,15 L0,7 Z " fill="#BC841E" transform="translate(1181,460)"/>
<path d="M0,0 L4,1 L-7,9 L-10,9 Z " fill="#DB9F2E" transform="translate(949,1108)"/>
<path d="M0,0 L3,3 L10,15 L7,14 L5,9 L2,9 Z " fill="#D6983B" transform="translate(429,926)"/>
<path d="M0,0 L1,0 L2,8 L1,14 L-1,14 L-2,17 Z " fill="#D69B37" transform="translate(1087,857)"/>
<path d="M0,0 L3,0 L2,3 L-3,5 L-5,7 L-6,2 Z " fill="#DE9C2E" transform="translate(907,542)"/>
<path d="M0,0 L2,1 L0,4 L-9,8 L-13,7 Z " fill="#2B2B2C" transform="translate(850,524)"/>
<path d="M0,0 L3,3 L7,10 L5,11 L3,14 Z " fill="#D59B3D" transform="translate(456,448)"/>
<path d="M0,0 L3,0 L2,3 L-7,5 L-9,3 Z " fill="#151818" transform="translate(692,558)"/>
<path d="M0,0 L3,0 L3,2 L-1,2 L-1,4 L-8,6 L-8,4 L-10,3 Z " fill="#1A1B1C" transform="translate(818,539)"/>
<path d="M0,0 L2,3 L4,11 L3,15 L1,13 L0,9 Z " fill="#BC8520" transform="translate(1190,493)"/>
<path d="M0,0 L1,0 L1,11 L-3,6 L-4,2 L-1,3 Z " fill="#DB9B2C" transform="translate(819,876)"/>
<path d="M0,0 L2,0 L2,3 L-3,5 L-9,4 L-6,2 Z " fill="#DC9D36" transform="translate(172,776)"/>
<path d="M0,0 L3,2 L3,10 L1,10 L0,12 Z " fill="#121313" transform="translate(85,754)"/>
<path d="M0,0 L1,4 L-2,14 L-5,14 L-2,5 Z " fill="#F6EBD6" transform="translate(131,596)"/>
<path d="M0,0 L1,0 L2,6 L3,9 L1,11 L1,16 L-1,17 L-1,8 Z " fill="#B1B2B2" transform="translate(546,555)"/>
<path d="M0,0 L4,5 L6,12 L4,14 L4,10 L2,10 Z " fill="#C68719" transform="translate(493,444)"/>
<path d="M0,0 L17,1 L17,2 L7,3 L4,5 Z " fill="#282929" transform="translate(852,442)"/>
<path d="M0,0 L1,4 L-2,14 L-5,15 L-2,6 Z " fill="#F4E6CC" transform="translate(272,348)"/>
<path d="M0,0 L6,0 L4,4 L1,6 L0,2 L-2,1 Z " fill="#D59425" transform="translate(416,321)"/>
<path d="M0,0 L3,1 L0,4 L-6,5 L-10,3 L-1,1 Z M-7,5 Z " fill="#D9DADA" transform="translate(1167,753)"/>
<path d="M0,0 L2,4 L2,12 L-1,8 L-2,4 Z " fill="#F8F1E0" transform="translate(866,730)"/>
<path d="M0,0 L3,1 L3,7 L0,7 L-3,9 Z " fill="#D5D4D5" transform="translate(710,676)"/>
<path d="M0,0 L12,0 L8,4 L0,1 Z " fill="#130D01" transform="translate(323,634)"/>
<path d="M0,0 L4,0 L5,3 L-2,4 L-5,2 Z " fill="#F1F1F1" transform="translate(716,586)"/>
<path d="M0,0 L2,4 L3,9 L2,11 L-1,11 Z " fill="#FCFAF6" transform="translate(495,570)"/>
<path d="M0,0 L2,4 L0,7 L0,13 L-3,15 L-2,6 Z " fill="#EFDAB3" transform="translate(291,552)"/>
<path d="M0,0 L2,1 L-6,7 L-8,5 L-7,2 Z " fill="#DBA547" transform="translate(361,397)"/>
<path d="M0,0 L2,1 L1,4 L-3,7 L-6,6 Z M-8,7 L-6,8 L-10,10 Z " fill="#1C1C1D" transform="translate(717,1150)"/>
<path d="M0,0 L1,0 L1,5 L3,5 L1,10 L0,13 L-2,13 Z " fill="#F0DDB7" transform="translate(737,898)"/>
<path d="M0,0 L1,0 L1,8 L-4,10 L-1,1 Z " fill="#D89A36" transform="translate(738,871)"/>
<path d="M0,0 L3,4 L5,10 L-2,4 L-2,2 L0,2 Z " fill="#DB9F3B" transform="translate(613,870)"/>
<path d="M0,0 L2,0 L2,2 L5,4 L-8,4 L-5,2 Z " fill="#FAF4E7" transform="translate(292,766)"/>
<path d="M0,0 L1,0 L1,12 L-2,10 L-1,2 Z " fill="#D09026" transform="translate(543,754)"/>
<path d="M0,0 L2,1 L0,9 L-3,10 L-2,4 Z M2,0 Z " fill="#1B1C1B" transform="translate(759,637)"/>
<path d="M0,0 L1,0 L2,14 L0,14 L-1,18 Z " fill="#DCAD5A" transform="translate(472,581)"/>
<path d="M0,0 L1,0 L1,10 L-1,7 L-4,8 L-2,3 Z " fill="#D3982F" transform="translate(256,581)"/>
<path d="M0,0 L2,3 L-3,12 L-5,12 L-3,6 Z " fill="#D79C39" transform="translate(287,394)"/>
<path d="M0,0 L2,0 L6,9 L6,11 L4,11 L0,3 Z " fill="#C2861B" transform="translate(1148,379)"/>
<path d="M0,0 L2,0 L0,7 L-2,8 L-3,12 L-5,12 L-3,6 Z " fill="#2F2310" transform="translate(491,363)"/>
<path d="M0,0 L1,2 L-2,7 L-5,10 L-8,9 Z " fill="#C48A14" transform="translate(189,249)"/>
<path d="M0,0 L2,1 L-6,9 L-9,8 Z " fill="#D49518" transform="translate(251,187)"/>
<path d="M0,0 L1,0 L2,13 L0,13 L0,19 L-1,19 Z " fill="#DBA74F" transform="translate(1089,835)"/>
<path d="M0,0 L3,0 L2,3 L-5,5 L-8,3 Z " fill="#D99A30" transform="translate(206,764)"/>
<path d="M0,0 L3,1 L1,4 L-9,4 L-6,2 Z M-4,4 L-2,5 Z " fill="#444546" transform="translate(150,728)"/>
<path d="M0,0 L8,1 L6,3 L0,5 L-1,2 Z " fill="#F3F3F3" transform="translate(374,698)"/>
<path d="M0,0 L3,1 L0,2 L1,6 L-4,5 L-6,2 Z M-4,3 Z " fill="#DDDDDD" transform="translate(674,599)"/>
<path d="M0,0 L2,4 L-5,5 L-5,1 Z " fill="#E8E8E8" transform="translate(732,581)"/>
<path d="M0,0 L4,0 L4,3 L-4,2 L-5,4 L-7,2 Z M-3,3 L-1,4 Z " fill="#DEA33E" transform="translate(950,530)"/>
<path d="M0,0 L1,0 L1,6 L0,8 L-2,8 L-2,10 L-5,11 L-3,6 Z " fill="#C08615" transform="translate(108,367)"/>
<path d="M0,0 L3,1 L-1,6 L-7,8 L-1,1 Z " fill="#C88D16" transform="translate(209,227)"/>
<path d="M0,0 L5,2 L11,6 L9,8 L7,7 L7,5 L4,5 L4,3 L1,3 Z " fill="#D39015" transform="translate(944,143)"/>
<path d="M0,0 L3,1 L-1,2 L-1,4 L-6,5 L-9,3 Z " fill="#18191A" transform="translate(106,743)"/>
<path d="M0,0 L2,1 L3,4 L0,9 L-1,9 L-1,1 Z " fill="#0C0C0C" transform="translate(630,699)"/>
<path d="M0,0 L2,0 L0,4 L-4,9 L-6,9 L-4,4 Z " fill="#D4962B" transform="translate(812,607)"/>
<path d="M0,0 L10,2 L10,3 L-5,3 L-3,1 Z " fill="#2F3030" transform="translate(669,606)"/>
<path d="M0,0 L2,3 L0,10 L-3,12 L-2,5 Z " fill="#DDAA4C" transform="translate(251,589)"/>
<path d="M0,0 L3,1 L-7,6 L-7,4 L-9,3 Z " fill="#B9BABA" transform="translate(765,570)"/>
<path d="M0,0 L3,1 L2,3 L-2,4 L-6,5 L-6,3 L-8,2 Z " fill="#181819" transform="translate(670,565)"/>
<path d="M0,0 L3,2 L3,4 L5,5 L3,5 L3,7 L-1,8 Z " fill="#DFA339" transform="translate(927,477)"/>
<path d="M0,0 L1,3 L-7,8 L-10,7 Z " fill="#D7992B" transform="translate(332,410)"/>
<path d="M0,0 L4,5 L5,9 L3,11 L0,5 Z " fill="#C58719" transform="translate(1130,343)"/>
<path d="M0,0 L3,3 L4,7 L1,9 L0,8 Z " fill="#1D1D1D" transform="translate(669,310)"/>
<path d="M0,0 L7,6 L3,9 Z " fill="#191A1A" transform="translate(892,881)"/>
<path d="M0,0 L4,1 L3,3 L-6,5 L-2,1 Z " fill="#28292A" transform="translate(93,747)"/>
<path d="M0,0 L5,2 L7,3 L7,6 L4,7 L0,2 Z " fill="#F8ECD6" transform="translate(830,728)"/>
<path d="M0,0 L2,1 L-8,6 L-12,4 Z " fill="#F2E1C3" transform="translate(175,713)"/>
<path d="M0,0 L2,1 L1,9 L-2,10 L-2,5 Z " fill="#D9D9DA" transform="translate(722,674)"/>
<path d="M0,0 L8,1 L5,4 L1,5 Z " fill="#F9EFDC" transform="translate(847,661)"/>
<path d="M0,0 L1,2 L-4,12 L-6,12 L-4,6 Z " fill="#F4E5C9" transform="translate(314,614)"/>
<path d="M0,0 L3,0 L2,3 L-7,4 L-6,2 Z " fill="#3E4141" transform="translate(853,585)"/>
<path d="M0,0 L4,2 L2,4 L-3,6 L-6,6 Z " fill="#F4EDDF" transform="translate(960,154)"/>
<path d="M0,0 L1,4 L-4,9 L-6,8 Z " fill="#191A1B" transform="translate(756,1108)"/>
<path d="M0,0 L2,1 L0,4 L-5,5 L-9,3 Z " fill="#E0AC50" transform="translate(310,728)"/>
<path d="M0,0 L2,1 L3,3 L-2,4 L-8,4 L-4,2 Z " fill="#CCCDCD" transform="translate(301,722)"/>
<path d="M0,0 L2,4 L2,6 L0,6 L-1,10 L-3,12 L-2,7 Z " fill="#C5C6C7" transform="translate(512,693)"/>
<path d="M0,0 L3,2 L2,5 L-3,4 Z M-5,4 L-3,5 L-5,6 Z " fill="#080909" transform="translate(873,573)"/>
<path d="M0,0 L3,4 L4,7 L0,8 L-1,5 Z " fill="#CE932D" transform="translate(1178,548)"/>
<path d="M0,0 L1,0 L1,12 L-2,9 Z " fill="#DADBDA" transform="translate(883,474)"/>
<path d="M0,0 L1,0 L1,7 L-8,6 L-4,5 L-1,5 Z " fill="#DEA73F" transform="translate(899,363)"/>
<path d="M0,0 L1,2 L3,2 L3,4 L5,5 L-2,7 Z " fill="#1C1C1C" transform="translate(656,363)"/>
<path d="M0,0 L1,0 L2,7 L-2,11 L-3,9 Z " fill="#DDAB50" transform="translate(307,345)"/>
<path d="M0,0 L2,0 L2,2 L0,2 L-1,5 L-8,6 L-3,2 Z " fill="#C68C13" transform="translate(342,121)"/>
<path d="M0,0 L4,1 L2,3 L-4,4 L-8,2 Z " fill="#AC7711" transform="translate(491,62)"/>
<path d="M0,0 L1,0 L1,13 L-1,13 L-2,8 L0,8 Z " fill="#EBD4A3" transform="translate(301,956)"/>
<path d="M0,0 L7,5 L4,8 L1,4 Z " fill="#DC9F3F" transform="translate(893,851)"/>
<path d="M0,0 L3,3 L3,6 L0,7 L-2,4 Z " fill="#DB9D29" transform="translate(540,852)"/>
<path d="M0,0 L3,0 L2,3 L-4,4 L-5,2 Z " fill="#DDA036" transform="translate(189,770)"/>
<path d="M0,0 L2,1 L-2,5 L-8,4 L-4,2 Z " fill="#DEA647" transform="translate(252,748)"/>
<path d="M0,0 L2,1 L0,5 L-2,8 L-4,5 L-3,1 Z " fill="#333334" transform="translate(123,737)"/>
<path d="M0,0 L2,0 L0,4 L-3,6 L-4,1 Z " fill="#202020" transform="translate(164,724)"/>
<path d="M0,0 L2,2 L-4,7 L-4,3 Z " fill="#18191A" transform="translate(648,681)"/>
<path d="M0,0 L3,1 L-1,3 L-2,8 L-5,8 Z " fill="#D3D4D5" transform="translate(506,609)"/>
<path d="M0,0 L2,1 L1,2 L4,4 L-5,6 L-5,4 Z " fill="#2D2D2D" transform="translate(665,556)"/>
<path d="M0,0 L2,1 L5,7 L4,10 L1,6 L-1,1 Z " fill="#D99A2F" transform="translate(1184,540)"/>
<path d="M0,0 L4,1 L1,3 L-5,4 L-7,2 Z " fill="#D99B33" transform="translate(928,536)"/>
<path d="M0,0 L2,3 L-2,8 L-5,7 Z " fill="#D59931" transform="translate(323,471)"/>
<path d="M0,0 L3,0 L2,3 L-4,4 L-6,2 Z " fill="#222324" transform="translate(863,380)"/>
<path d="M0,0 L1,0 L1,5 L-3,9 L-3,5 Z " fill="#CB8E15" transform="translate(143,309)"/>
<path d="M0,0 L2,0 L1,4 L-4,8 L-3,3 Z " fill="#DE9F34" transform="translate(986,175)"/>
<path d="M0,0 L2,1 L1,3 L-1,3 L-1,5 L-5,6 L-7,4 Z " fill="#BE8313" transform="translate(356,113)"/>
<path d="M0,0 L2,1 L-4,5 L-9,5 L-5,2 Z " fill="#323233" transform="translate(388,88)"/>
<path d="M0,0 L2,1 L4,7 L2,9 L2,7 L0,7 Z " fill="#D4932F" transform="translate(607,1056)"/>
<path d="M0,0 L2,3 L1,7 L-1,6 Z M-4,5 L-1,6 L-3,9 Z " fill="#EAE0CD" transform="translate(920,903)"/>
<path d="M0,0 L2,0 L1,9 L-1,11 L-1,2 Z " fill="#F5E9D0" transform="translate(791,827)"/>
<path d="M0,0 L5,2 L10,5 L6,6 L0,1 Z " fill="#D59A26" transform="translate(783,727)"/>
<path d="M0,0 L2,1 L0,4 L-5,5 L-7,3 Z M-7,5 L-5,6 Z " fill="#DFA745" transform="translate(327,722)"/>
<path d="M0,0 L1,0 L3,8 L4,13 L0,9 Z " fill="#332403" transform="translate(781,685)"/>
<path d="M0,0 L5,1 L2,3 L-3,4 L-4,2 Z " fill="#D99629" transform="translate(234,691)"/>
<path d="M0,0 L1,0 L1,5 L3,5 L2,13 L1,13 L0,8 Z " fill="#9C700F" transform="translate(42,677)"/>
<path d="M0,0 L4,5 L5,10 L3,10 L0,4 Z " fill="#B47E19" transform="translate(1210,605)"/>
<path d="M0,0 L1,4 L-1,9 L-2,11 L-4,11 L-2,5 Z " fill="#F7EEDC" transform="translate(136,585)"/>
<path d="M0,0 L1,3 L-4,4 L-4,6 L-8,4 Z " fill="#D69930" transform="translate(357,573)"/>
<path d="M0,0 L2,0 L0,4 L-2,7 L-5,6 Z " fill="#1D1F20" transform="translate(555,558)"/>
<path d="M0,0 L2,0 L4,2 L4,5 L0,6 L-1,1 Z " fill="#CCCACD" transform="translate(923,487)"/>
<path d="M0,0 L2,3 L-4,10 L-4,7 Z " fill="#F8EDDB" transform="translate(304,474)"/>
<path d="M0,0 L5,2 L6,5 L0,5 L2,4 L2,2 L0,2 Z " fill="#E1E1E1" transform="translate(895,403)"/>
<path d="M0,0 L1,0 L2,9 L-1,13 L-1,5 Z " fill="#DDAC54" transform="translate(464,367)"/>
<path d="M0,0 L4,1 L-2,2 L-1,5 L-6,5 L-5,2 Z " fill="#3D3D3D" transform="translate(628,308)"/>
<path d="M0,0 L8,1 L8,3 L10,4 L3,3 L3,1 Z " fill="#BF8313" transform="translate(482,1189)"/>
<path d="M0,0 L6,5 L5,8 L2,6 Z " fill="#D8962A" transform="translate(207,1024)"/>
<path d="M0,0 L3,0 L5,2 L6,5 L3,5 L0,2 Z " fill="#C98C17" transform="translate(196,1015)"/>
<path d="M0,0 L6,4 L8,7 L5,7 L5,5 L1,3 Z " fill="#DB9629" transform="translate(194,1010)"/>
<path d="M0,0 L2,2 L1,6 L0,11 L-1,11 L-1,1 Z " fill="#D79931" transform="translate(716,970)"/>
<path d="M0,0 L1,0 L2,11 L0,11 L-1,5 Z " fill="#D1BC98" transform="translate(923,917)"/>
<path d="M0,0 L2,0 L2,5 L-1,5 L-4,1 L-1,2 Z " fill="#CA921E" transform="translate(537,851)"/>
<path d="M0,0 L2,0 L0,4 L-4,7 L-4,4 Z " fill="#D39226" transform="translate(297,832)"/>
<path d="M0,0 L1,4 L-4,8 L-4,5 Z " fill="#DA9A2C" transform="translate(318,809)"/>
<path d="M0,0 L2,0 L2,3 L-4,4 L-6,2 Z " fill="#DCA13C" transform="translate(149,784)"/>
<path d="M0,0 L4,1 L5,5 L-1,5 Z " fill="#B78015" transform="translate(487,721)"/>
<path d="M0,0 L4,0 L3,6 L0,5 L-1,1 Z " fill="#DAA041" transform="translate(338,718)"/>
<path d="M0,0 L2,1 L-1,6 L-4,4 L-3,1 Z " fill="#2E2E2F" transform="translate(375,702)"/>
<path d="M0,0 L9,1 L6,4 L4,4 L4,2 L-1,2 Z " fill="#BEBEBE" transform="translate(662,608)"/>
<path d="M0,0 L3,0 L2,3 L-3,4 L-6,2 Z " fill="#19191A" transform="translate(646,572)"/>
<path d="M0,0 L1,4 L1,10 L-2,11 L-1,3 Z " fill="#E0AF59" transform="translate(271,563)"/>
<path d="M0,0 L0,3 L-4,8 L-7,6 Z " fill="#393839" transform="translate(567,504)"/>
<path d="M0,0 L3,3 L4,9 L0,4 L-1,1 Z " fill="#D99B33" transform="translate(1165,506)"/>
<path d="M0,0 L4,2 L7,6 L4,6 L0,2 Z " fill="#D79427" transform="translate(1125,457)"/>
<path d="M0,0 L6,1 L4,3 L-5,2 L-5,1 Z " fill="#DCA64A" transform="translate(879,364)"/>
<path d="M0,0 L1,4 L-2,9 L-4,9 L-2,3 Z " fill="#B88216" transform="translate(113,358)"/>
<path d="M0,0 L1,0 L1,7 L-3,11 Z " fill="#F3E3C7" transform="translate(276,337)"/>
<path d="M0,0 L1,3 L3,3 L2,6 L0,8 L-2,11 L-1,4 Z " fill="#F2DFBE" transform="translate(281,320)"/>
<path d="M0,0 L4,2 L6,6 L4,8 L2,5 L2,2 L0,2 Z " fill="#CF8E19" transform="translate(1113,318)"/>
<path d="M0,0 L5,5 L6,7 L4,9 L4,6 L1,5 Z " fill="#CF8F1B" transform="translate(1084,275)"/>
<path d="M0,0 L2,4 L3,8 L1,10 L-1,5 Z " fill="#D89B38" transform="translate(309,163)"/>
<path d="M0,0 L2,1 L-3,6 L-6,5 Z " fill="#1C1C1D" transform="translate(704,1161)"/>
<path d="M0,0 L3,0 L5,6 L1,4 L-1,1 Z " fill="#F8F1E1" transform="translate(379,1059)"/>
<path d="M0,0 L1,0 L0,7 L-1,9 L-3,9 Z " fill="#BB8415" transform="translate(909,1021)"/>
<path d="M0,0 L1,4 L-1,10 L-3,9 Z " fill="#D9D9DA" transform="translate(1181,830)"/>
<path d="M0,0 L2,1 L-3,7 L-6,6 Z " fill="#FAF4E7" transform="translate(319,778)"/>
<path d="M0,0 L3,0 L2,3 L-5,4 L-3,1 Z " fill="#D89A2D" transform="translate(315,768)"/>
<path d="M0,0 L5,1 L2,3 L-3,2 Z M5,0 L7,1 Z " fill="#DC9C31" transform="translate(1166,762)"/>
<path d="M0,0 L4,1 L1,3 L-4,4 L-3,1 Z " fill="#DB982A" transform="translate(260,683)"/>
<path d="M0,0 L2,3 L-3,8 L-3,5 Z " fill="#E5E5E6" transform="translate(534,655)"/>
<path d="M0,0 L3,0 L2,3 L-6,3 L-3,1 Z " fill="#262727" transform="translate(594,588)"/>
<path d="M0,0 L2,0 L2,2 L-4,5 L-4,3 L-6,2 Z " fill="#D9A040" transform="translate(339,581)"/>
<path d="M0,0 L2,3 L-1,8 L-3,8 L-1,2 Z " fill="#272828" transform="translate(882,557)"/>
<path d="M0,0 L1,3 L1,7 L-2,8 L-3,4 Z " fill="#DB9720" transform="translate(1177,550)"/>
<path d="M0,0 L3,0 L2,3 L-5,2 L-5,1 Z M-4,3 L-1,4 Z " fill="#212223" transform="translate(805,543)"/>
<path d="M0,0 L3,1 L2,4 L-1,8 L-1,1 Z " fill="#C5C5C6" transform="translate(894,538)"/>
<path d="M0,0 L4,5 L5,8 L3,9 L-1,1 Z " fill="#D9992D" transform="translate(1170,514)"/>
<path d="M0,0 L2,0 L1,8 L-1,8 Z " fill="#C58A14" transform="translate(58,494)"/>
<path d="M0,0 L1,3 L-3,10 L-5,9 Z " fill="#F9F2E6" transform="translate(330,486)"/>
<path d="M0,0 L2,0 L4,7 L0,6 Z " fill="#E1A855" transform="translate(931,460)"/>
<path d="M0,0 L3,4 L4,8 L2,10 L0,5 Z " fill="#DC9925" transform="translate(964,462)"/>
<path d="M0,0 L3,0 L4,6 L2,7 Z " fill="#EAEAEA" transform="translate(1190,460)"/>
<path d="M0,0 L1,3 L-2,10 L-3,7 L-3,3 Z " fill="#DC9917" transform="translate(486,370)"/>
<path d="M0,0 L1,0 L0,8 L-3,5 Z " fill="#D5D7D6" transform="translate(656,358)"/>
</svg>
